/* XPM */
static char *_20dfd8973294e02ac762ed14ce02ccdmMm8EsTzm8MmVuZ1[] = {
/* columns rows colors chars-per-pixel */
"64 64 156 2 ",
"   c #6DC7DF",
".  c #6CC8DF",
"X  c #71C7DE",
"o  c #74C9DE",
"O  c #4FC6ED",
"+  c #4EC8EF",
"@  c #55C1E6",
"#  c #5BC6E5",
"$  c #53C6EC",
"%  c #5AC6EA",
"&  c #55C9ED",
"*  c #5CCAED",
"=  c #4EC7F5",
"-  c #4EC8F4",
";  c #4FC9F8",
":  c #52C7F2",
">  c #52C9F3",
",  c #5CCEF3",
"<  c #5ECEF3",
"1  c #5ECDF1",
"2  c #59CFF7",
"3  c #5CCDF5",
"4  c #5DCFF4",
"5  c #5ECEF4",
"6  c #5FCFF4",
"7  c #5CCBF1",
"8  c #5FD0F2",
"9  c #5DD1F6",
"0  c #5FD0F2",
"q  c #6DC7E1",
"w  c #67C9E6",
"e  c #69CBE6",
"r  c #6DCBE5",
"t  c #6ACCE7",
"y  c #6FCDE7",
"u  c #6ECCE6",
"i  c #6DCCE5",
"p  c #63C5E9",
"a  c #60C9E9",
"s  c #60C8EB",
"d  c #60CBEB",
"f  c #63CCE9",
"g  c #63CCEA",
"h  c #64CDEB",
"j  c #61C9EC",
"k  c #60CBED",
"l  c #60CBEF",
"z  c #62CAEF",
"x  c #62CDED",
"c  c #60CDEE",
"v  c #62CDEF",
"b  c #61CEEF",
"n  c #66CFEC",
"m  c #66CFED",
"M  c #64CCEF",
"N  c #65CCEF",
"B  c #65CEEE",
"V  c #64CFEF",
"C  c #65CEEC",
"Z  c #64CCED",
"A  c #6BCDE8",
"S  c #69CEEA",
"D  c #6ACFEB",
"F  c #6CCEE9",
"G  c #6DCFEA",
"H  c #6DCCEA",
"J  c #6ACDEC",
"K  c #69CEEC",
"L  c #6ACFED",
"P  c #68CFEE",
"I  c #6CCDEC",
"U  c #71C7E0",
"Y  c #73CCE5",
"T  c #7ACEE5",
"R  c #70CEE8",
"E  c #71CFE9",
"W  c #74CEE9",
"Q  c #7ACEEA",
"!  c #6CD0E7",
"~  c #67D0ED",
"^  c #67D0EE",
"/  c #65D0ED",
"(  c #6ED0EB",
")  c #6BD0EC",
"_  c #6BD0EE",
"`  c #6CD1ED",
"'  c #6CD1EF",
"]  c #6CD1EB",
"[  c #75D0E7",
"{  c #7BD1E6",
"}  c #72D0EA",
"|  c #75D1EA",
" . c #7CD2EC",
".. c #60CAF1",
"X. c #61CBF2",
"o. c #60CCF0",
"O. c #61CCF0",
"+. c #61CDF1",
"@. c #61CFF0",
"#. c #60CEF1",
"$. c #63CEF0",
"%. c #62CFF0",
"&. c #62CCF3",
"*. c #61CFF2",
"=. c #60CEF3",
"-. c #62CEF2",
";. c #63CEF2",
":. c #63CFF3",
">. c #65CDF0",
",. c #64CCF1",
"<. c #64CFF1",
"1. c #66CEF1",
"2. c #65CDF2",
"3. c #64CCF3",
"4. c #64CFF3",
"5. c #66CEF3",
"6. c #61CFF4",
"7. c #61CEF5",
"8. c #67CFF4",
"9. c #64CEF1",
"0. c #69CFF5",
"q. c #6BCDF1",
"w. c #62D0F1",
"e. c #63D0F1",
"r. c #60D1F3",
"t. c #63D1F2",
"y. c #65D0F2",
"u. c #64D1F2",
"i. c #65D2F3",
"p. c #65D0F0",
"a. c #63D1F4",
"s. c #61D1F6",
"d. c #63D1F6",
"f. c #60D2F7",
"g. c #64D0F4",
"h. c #65D0F4",
"j. c #63D1F2",
"k. c #6CD0F2",
"l. c #69D1F6",
"z. c #6AD2F2",
"x. c #7ED6F1",
"c. c #7ED8F0",
"v. c #81CFE6",
"b. c #80CFED",
"n. c #81D0E7",
"m. c #83D4ED",
"M. c #8BD5EE",
"N. c #85D9EE",
"B. c #89D8EF",
"V. c #84D5F1",
"C. c #8BD5F1",
"Z. c #85D8F3",
"A. c #8BD9F3",
"S. c #8CDBF9",
"D. c #90D9F2",
"F. c #90DCFA",
/* pixels */
"- - - - - - - - - - - - - - - > : : : : : : > > - - - - - - - - - - - - - - - - - - - - - - - - - - - - - - - - - - - - - - - - ",
"- - - - - - - - - - - - - - - - : : : : : > > - - - - - - - - - - - - - - - - - - - - - - - - - - - - - - - - - - - - - - - - - ",
"- - - - - - - - - - - - - - - - > > > > > > > - - - - - - - - - - - - - - - - - - - - - - - - - - - - - - - - - - - - - - - - - ",
"- - - - - - - - - - - - - - - - - - > - > - - - - - - - - - - - - - - - - - - - - - - - - - - - - - - - - - - - - - - - - - - - ",
"- - - - - - - - - - - - - - - - - - = - = - - - - - - - = = = = = = = = = = = = = = = = = = = = = = = = = = = = = = = = = = = = ",
"- - - - - - - - - - - - - - - - - - - - - - - - - - - - = = = = = = = = = = = = = = = = = = = = = = = = = = = = = = = = = = = = ",
"- - - - - - - - - - - - - - - - - - - - - - - - - - - - - - - - - - - - - - - - - - - - - - - - - - - - - - - - - - - - - - - - ",
"- - - - - - - - - - - - - - - - - - - - - - - - - - - - - - - - - - > - > - > - > - > - > - > > > > > > > > > > > > > > > > > > ",
"- > > > > > > > - - - - - - - - > - - - - - - - - - - - - - - - = = : - : - > - > > > > > - > - > > > - - - - - - - - - - - - - ",
"- - - > > > > > - - - - - - - - > > - - - - = - - - - - > > > > = O : $ : $ : > > > > > > > : > > > > - - - - - - - - - - - - - ",
"O O $ $ > > > > $ $ $ $ $ $ $ + + - - + = O O O > > > > > > : > $ $ $ $ $ $ : $ > $ > $ : $ $ $ > > > - - - - - - - - - - - - - ",
"O O O $ $ > > > > > > > > > > $ O O O O O O O O $ $ $ $ $ $ & & & & & & & & & & & & & & & & & $ > > > - - - - - - - - - - - - - ",
"$ $ $ $ $ $ O O $ $ > > > > $ $ $ $ $ $ & & & & & & & & & & & $ * * * * * * 1 1 1 1 1 1 1 1 1 , > > > - - - - - = = = = = = = = ",
"> > > > $ $ O O > > > > > > > $ & & & & , 1 1 4 * * * * * * * * * * z * b b b O.g.g.g.O.3.O.O.6.> > > - - - - - = = = = = = = = ",
"2 2 2 2 > > $ $ > > > > > > > $ & & * * 1 8 r.a.1 1 O.O.O.O.O.O.O.b N b N b 3.3.3.3.3.O.3.b N O.> > > - - - - - - - - - - - - - ",
"9 9 4 , , & & $ & & & & & & & & $ $ $ & * * O.O.a.a.g.g.g.g.g.g.O.O.O.O.3.i.3.3.z z z z g g g * > > > : : > > > > > > > > > > > ",
"i.r.r.O.b * * * * * * * * * * * @ @ $ $ % * * * a.a.a.a.a.a.a.a.4 4 1 1 1 8 O.O.# # # # # # # # * * * * * & & : > > > > > ; ; ; ",
"~ ~ N N N n n f ~ ~ ~ n N N N N * * % % % % % $ * * * * * * * * * & & & & * * * % % # # # # # # n b b b 1 1 1 , > > > > > ; ; ; ",
"L F L F L F L F ' ' _ _ _ _ L L z X.* * * % % % $ $ $ $ $ $ $ $ $ $ $ $ $ $ % % * * * * g g g g i.i.r.r.O.6.1 4 > > > > > > > > ",
"e t t F G G G ( G G G F F F G L N O.3.X.X.X.X.1 @ $ @ $ $ $ $ $ % % % % % % % % r.r.N N N N N 3.r.r.O.O.O.1 , 2 > > > > > > > > ",
"r r i i E E } } E E E i i i i G k.l.0.8.3.3.3.O.% % % % % % % % * * * * * * * * i.i.3.3.3.O.O.r.1 1 1 1 7 , 7 7 > > > > > > > > ",
"R R R R R R R R Q Q Q R R R R E k.l.l.z.8.3.3.3.z z z z z z z z i.~ N N N N N 3.3.O.b b z * * * * & * & & & & $ & > > > > > > > ",
"{ { { Y Y Y Y Y Y Y Y Y Y Y Y E I L L L L L L L L L L L L L L L ' ' ' ' z.z.z.z.N N N g * # % # $ $ $ $ $ $ $ $ & & & & $ > > > ",
" . . .Q Y T Y U Y T T Y Y Y Y Q E I G F F t e w I I I I I G G G I G G F F L L L k.z.N N g # # # & & & & $ $ $ $ & & & & $ $ $ $ ",
"Z.V.V. .Q Q Y Y  . . .Q Q Q Q Q R i i i i i r r i i i R R i i i E G G G G F F L I L L N n Z g * & & & & & & & & $ $ $ $ & & & & ",
"V.V.V.V.V.Z.V.Z.Z.Z.Z.V.V. .m. .Y Y Y Y R Y Y Y   Y [  . .[ Y   Q E Q E E G G G G G L L L L L L * * * * & & * * & & & * * * * & ",
"Z.Z.Z.Z.A.Z.A.A.S.S.A.Z.V.V.m.m.Y Y Y o Y Y Y Y X Y  .N.Z. .T X Y E R R R Y Y H r r G G G I I ' ~ / / / f f b b r.r.r.a.r.8 8 8 ",
"A.C.A.C.C.V.V.m.A.C.A.C.V.m.V.m.T T T T o o o o T { m.N.B.m.n.T Y R Y Y Y Y r r Y r Y Y Y R G G ( ] ] ] ] ] n N z.l.l.g.i.O.O.O.",
"C.C.C.C.C.C.C.C.C.C.C.B.C.B.C.B.n.m.n.{ T T T T m.B.B.B.B.B.B.B.Y Y Y Y R Y Y Y Q Q Y Y Y Y Y R R i E i i i t F I L L Z z # # # ",
"C.C.C.C.C.C.C.C.C.C.C.C.C.C.C.C.A.A.B.B.m.m.n.v.B.B.M.M.M.M.B.B.T Y Y Y Y Y Y Y T T T T Q T Q T { { { { { [ [ } E I N t p p p # ",
"M.M.M.M.M.M.M.M.M.M.M.M.M.M.M.M.A.A.A.A.C.B.B.B.B.C.C.C.C.C.C.B.Q { { { { Q T T  . . .{ n. .n.n.m.m.B.m.m.m. .x.W E E I I N q.N ",
"M.M.M.M.M.M.M.M.M.M.M.M.M.C.D.A.B.B.B.B.C.C.C.A.B.B.C.C.C.M.M.B.m.m.m. . . .m. .V.B.B.V.B.Z.Z.N.B.B.B.B.B.m.m.V.W W E E I I q.q.",
"M.M.M.M.M.M.M.M.M.M.B.B.B.M.C.A.M.M.B.B.B.B.C.C.C.M.B.M.M.B.M.C.C.A.C.V.V.V.V.V.V.V.V.V.V.V.Z.Z. . . . . .{ { [ R Y Y r H F F F ",
"M.M.M.M.M.M.M.M.B.B.B.B.B.B.B.B.B.B.B.B.B.B.M.B.M.B.B.B.B.B.B.C.F.F.A.A.A.A.A.A.V.V.V.V.V.V.V. . . .| [ [ R Y Y Y R E E E G G F ",
"M.M.M.M.M.M.M.M.M.M.M.B.B.B.B.B.B.M.B.B.B.B.B.B.B.B.B.B.B.B.B.C.A.A.Z.V.V.V.V.V.Q Q Q Q Q Q Q Y R R R R R Y Y Y Y Y {  . .| Y r ",
"M.M.M.M.M.M.M.M.M.M.M.M.B.B.B.B.M.M.B.B.B.B.M.M.B.B.B.M.M.B.B.B.V.V.m.Q Q Q  . .Y Y Y Y R r r r     i Y Y Y Y T Y Q V.Z.Z.V.Q Y ",
"M.M.M.M.M.M.M.M.B.B.B.B.B.B.B.B.B.B.B.B.B.B.B.B.B.B.M.M.M.M.B.C.m. .Q Y Y Y Q [ R R i i i i i r i Y Y Y Q Q {  .Q m.V.A.A.A.V.b.",
"M.M.M.M.M.M.M.M.B.B.B.B.B.B.B.M.M.B.B.B.B.B.B.M.M.B.M.M.M.B.B.C.m. .Q Y Y Y Q [ R R R ! i i i i R R Y Q  . . .V.Z.Z.C.C.A.C.A.A.",
"C.C.C.C.C.C.C.C.B.C.C.C.C.C.B.B.C.C.C.C.C.C.C.C.B.C.C.C.C.C.C.C.Q  .Q Y Y Y Y R E E } ! i i i i r Y E Q [  . .x.Z.Z.V.C.C.C.C.A.",
"C.C.C.C.C.C.C.C.C.C.C.C.C.V.B.B.C.C.C.C.C.C.C.C.B.C.C.C.C.C.C.C.b.Q Q Y Y Y Y Y R Y R R i i i i i i i E E [ [ [ x.V.V.A.A.C.C.V.",
"C.C.C.C.C.C.C.C.C.C.C.A.V.V.V.V.C.C.C.C.C.C.C.C.C.C.C.C.C.C.C.C.V.V.b.Q Q Q Y Q Q Q Q Y Y Y Y Y e e e e i i } } [ {  .V.V.V.m.m.",
"C.C.C.C.C.V.V.B.V.V.V.V.V.V.V.V.C.C.C.C.V.V.V.V.C.C.C.C.C.C.C.C.F.S.A.V.b.Q Q Q m. . . . . . .Q R i e e e t ( } i i Y Y T  .B.B.",
"A.V.V.V.m.m.n. .m. . . . . . . .m.m.m.m.m.m.m.m.m.B.B.V.V.Z.V.V.S.S.A.A.A.V.m.m.V.V.V.V.V.V.V.V.| } G t t t ( ] t t r   Y Y  .m.",
"A.Z.V.m. .Q T Y T Y Y Y Y Y Y Y  . . . . .Q Q Q Q  . . .m.V.Z.Z.V.V.V.V.V.Z.V.V.m.V.V.V.V.Z.Z.Z.Z.x. .} ! ! ( ( ( ( i i Y Y Y T ",
"Z.V. . .T Y Y Y Y R Y Y R R Y Y Y Y Y Y Y Y Y Y Y Y Y {  .V.V.Z.Q Q  .m.m.V.V.V.Q Q m.V.V.Z.Z.Z.S.Z.Z. .[ } ! ! t t i R R Y Y T ",
" . .{ [ Y Y i   Y R R R R R R R R R Y Y Y Y Y Y i i R [ {  . .c.Y Y Y Q Q Q { { Y Y Q Q  . .V.V.S.S.A.V. .} ! t t t i } Y Y Y Y ",
"{ [ Q R R Y i i E E R R R i R R i i R i R i R i i r R R [ } [ | q q i Y Y Y Y Q Y Y Y Y Y Q Q Q A.A.A.V. .[ i r ! ! | |  . .Q Q ",
"R R R R R Y i i R R R R i i r r R R R Y Y Y Y Y Y Y Y R Y R R R R R R R Y Y Y Y Y Y Y Y Y Y Y Y V.V.V.V. .[ i i r i [  .V.V.V.V.",
"r r i r r i R R i i Y Y Y Y Y Y { { { Y Y Y Y Y Y Y { { { Y Y Y Y Y Y Y Y Y Y Y Y Y Y T T T o o  . . . .[ E R r r R  .V.Z.A.Z.Z.",
"i i r r i R R R Y Y Q Q Q  . . .m. .{ { T T o o  .m.N.N.N.N.m. .T { { { T { T T T Y T Y T Y o T Y Y Q E E R r i q r Q  .V.Z.A.Z.",
"R R R R R R R Y Y Q Q  . .x.V.V.Z.B.m.n.T T T T { n.B.N.B.B.m.n.m.m.m.m.m.m.n. .T { T T T T T T Y Y Y R R r r i i i Y Q  .V.A.A.",
"[ [ [ Q Q Y Y Y {  . .m.V.V.V.V.A.B.B.m.m.n.v.T n.n.B.B.A.B.B.m.A.A.B.B.B.N.B.N.n.n.n.n.n.n.n. .Y Y R i r r r r i i Y Y Q m.V.A.",
" . . .{ { T Y Y V.V.V.V.C.A.A.A.A.A.B.B.B.m.m.m.M.m.B.B.B.B.B.B.A.A.B.B.B.B.B.B.B.B.B.B.B.B.B.B.Y R R Y Y Y Y Y R Y Y T T Q V.C.",
"V.V.V.m. . .Q Q V.V.C.C.A.A.A.A.A.A.M.B.B.B.B.M.B.M.m.m.M.B.B.B.B.B.B.B.B.M.M.M.A.A.A.M.M.B.B.B.Q Q Y Y R R R R { Y Y T T b.m.C.",
"Z.Z.V.V.V.m.m.m.C.C.C.C.C.C.C.C.C.M.M.M.B.B.B.B.C.M.B.M.B.M.C.D.M.M.M.M.M.M.M.M.C.C.C.C.M.M.M.B. . .{ { { { { {  . . .m.m.m.C.C.",
"V.V.V.V.V.C.C.C.A.A.C.C.C.C.C.M.M.M.M.B.B.B.B.M.C.B.M.M.M.M.M.C.M.M.M.M.M.M.M.M.D.C.C.M.M.M.M.B.m. .m.m.m.m. . . .m.B.C.C.C.C.C.",
"B.B.V.C.C.C.A.A.B.B.M.M.M.M.M.M.B.B.B.B.B.B.B.B.C.B.B.M.B.B.B.C.M.M.M.M.M.M.M.M.M.M.M.M.M.M.M.M.B.B.B.B.B.B.B.B.B.B.C.C.C.C.M.M.",
"B.B.B.C.C.C.C.C.C.C.C.C.C.C.C.C.B.B.B.B.B.B.B.B.B.B.B.B.B.B.B.B.M.M.M.M.M.M.M.M.M.M.M.M.M.M.M.M.B.B.B.B.B.B.B.B.B.C.C.C.C.C.C.M.",
"C.C.C.C.C.C.C.C.C.C.C.C.C.C.C.C.B.B.B.B.B.B.B.B.B.B.B.B.B.B.B.B.M.M.M.M.M.M.M.M.M.M.M.M.M.M.M.M.C.C.C.C.C.C.C.C.C.C.C.C.C.C.C.C.",
"C.C.C.C.C.C.C.B.C.C.C.C.C.C.C.C.B.B.B.B.B.B.B.B.B.B.B.B.M.B.B.B.M.M.M.M.M.M.M.M.M.M.M.M.M.M.M.M.C.C.C.C.C.C.C.C.C.C.C.M.M.C.C.C.",
"M.M.M.M.M.M.M.M.B.B.M.M.B.B.B.M.M.B.M.B.M.B.B.B.B.B.B.B.M.B.M.M.B.B.M.M.M.M.M.M.M.M.M.M.M.M.B.B.M.M.M.M.M.M.M.M.B.B.M.M.M.B.B.B.",
"M.M.M.M.M.M.M.M.M.M.M.M.B.B.B.B.B.B.B.B.M.M.M.M.M.B.B.M.B.M.M.M.M.M.M.M.B.B.B.B.M.M.M.M.M.M.B.B.M.M.M.M.M.M.M.M.B.B.M.M.B.B.B.B.",
"M.M.M.M.M.M.M.M.M.M.B.B.B.B.B.B.B.M.M.M.M.M.M.M.M.M.M.M.M.M.M.M.M.B.B.B.B.B.B.B.B.B.B.B.B.B.B.B.B.B.B.B.M.M.M.B.B.B.B.B.B.B.B.B.",
"M.M.M.M.M.M.M.B.M.M.M.M.B.B.B.B.B.M.M.M.M.M.M.M.M.M.M.M.M.M.M.M.M.B.B.B.B.B.B.B.B.B.B.B.B.B.B.B.B.B.B.B.M.M.B.B.B.B.B.B.B.B.B.B."
};
