/* XPM */
static char *_e82745045674761f13a194ce1ed2f58R7bR73AjHahCL87p[] = {
/* columns rows colors chars-per-pixel */
"64 64 144 2 ",
"   c #020302",
".  c #060807",
"X  c #080A07",
"o  c #070908",
"O  c #0B0D0C",
"+  c #0E100E",
"@  c #10120F",
"#  c #0D0E10",
"$  c #0F1110",
"%  c #121413",
"&  c #161816",
"*  c #191B16",
"=  c #151618",
"-  c #171918",
";  c #1B1D1B",
":  c #1E201E",
">  c #20221F",
",  c #1D1E21",
"<  c #1F2120",
"1  c #232523",
"2  c #262826",
"3  c #282A27",
"4  c #242529",
"5  c #272928",
"6  c #2B2D2B",
"7  c #2E302E",
"8  c #30322F",
"9  c #2D2E32",
"0  c #2F3130",
"q  c #333533",
"w  c #363836",
"e  c #383A37",
"r  c #353639",
"t  c #373939",
"y  c #3A3C3B",
"u  c #3E403F",
"i  c #41433F",
"p  c #3C3C42",
"a  c #3F4140",
"s  c #424443",
"d  c #464846",
"f  c #4A4C47",
"g  c #45454A",
"h  c #474949",
"j  c #4A4C4B",
"k  c #4E504E",
"l  c #50524F",
"z  c #464650",
"x  c #4C4D53",
"c  c #4F5151",
"v  c #535454",
"b  c #565857",
"n  c #595B57",
"m  c #54555A",
"M  c #575959",
"N  c #5A5C5C",
"B  c #5E605F",
"V  c #61635F",
"C  c #565660",
"Z  c #5C5D62",
"A  c #5E5E68",
"S  c #5F6160",
"D  c #626464",
"F  c #666867",
"G  c #686A67",
"H  c #656669",
"J  c #676969",
"K  c #6A6C6B",
"L  c #6E706F",
"P  c #70726F",
"I  c #6D6E71",
"U  c #6F7170",
"Y  c #727473",
"T  c #767876",
"R  c #787A77",
"E  c #747579",
"W  c #777978",
"Q  c #7A7C7B",
"!  c #7E807E",
"~  c #80827F",
"^  c #7C7D80",
"/  c #7F8181",
"(  c #838583",
")  c #868886",
"_  c #888A87",
"`  c #848589",
"'  c #878988",
"]  c #8A8C8B",
"[  c #8E908E",
"{  c #90928F",
"}  c #8E8F92",
"|  c #8F9190",
" . c #959796",
".. c #949695",
"X. c #929493",
"o. c #979996",
"O. c #969897",
"+. c #989A97",
"@. c #939498",
"#. c #979998",
"$. c #979998",
"%. c #999B9A",
"&. c #9A9C99",
"*. c #9A9C9B",
"=. c #9C9E9B",
"-. c #9C9E9D",
";. c #9B9D9B",
":. c #9EA09D",
">. c #9EA09F",
",. c #9FA19F",
"<. c #9D9EA1",
"1. c #9FA1A0",
"2. c #A1A3A1",
"3. c #A1A3A2",
"4. c #A2A4A3",
"5. c #A4A6A3",
"6. c #A5A7A6",
"7. c #A3A5A3",
"8. c #A7A9A6",
"9. c #A5A6AA",
"0. c #A7A9A8",
"q. c #A8AAA9",
"w. c #A9ABAA",
"e. c #AAACA9",
"r. c #ABADAC",
"t. c #ACAEAD",
"y. c #ABADAC",
"u. c #AFB1AE",
"i. c #AFB1AF",
"p. c #B1B3B2",
"a. c #B2B4B1",
"s. c #B2B4B3",
"d. c #B3B5B4",
"f. c #B4B6B5",
"g. c #B1B3B3",
"h. c #B6B8B7",
"j. c #B5B6B8",
"k. c #B7B9B8",
"l. c #B7B9B8",
"z. c #BABCBB",
"x. c #BCBEBB",
"c. c #BCBEBB",
"v. c #C5C7C6",
"b. c #C0C2C1",
/* pixels */
"6 Y ( Q Q Y Y D M D B N D v 6 % 1 d - ;   - & ; q q - y ] Y ] ( ( | ] ( ( T K Y s : w q 1 y 1 B Q W Y K K D D D K K Y Y K Y Q ) ",
"d Q ( Q Y K K N D J D D D j q 6 1 5 ; s b K S M 2 1 q 5 K ( Q ] / ( ' ] ( U N N D - 2 q q q 6 N Q T Y K F D D F D D D D D K L Y ",
"F / Q Y U F D N F D B N b u q u 0 q M ( ....] ] v - 1 6 B D k ( ! W ( ] ( K b h D ; 6 q q 6 h L Q Y K D D D K K J D D S D D D D ",
"Q Q Y K K D D B D N v d y q q y y s ( ..] Q Q ' b y % 6 h v h u Y D K Y K b j s d 6 6 6 6 d Q ( W Y K D D F L Y Y K D D K K D S ",
"Q L K F D D D D N N j q 6 w y 6 y t F K K K K K Y D - q 1 s b k N j j v h s h d y q 2 1 1 D X./ Y K D S D K Y Q W Y K K K K D N ",
"L S D D S F D D S D b q 2 y s 2 h s v D K Q Y Y ( J y y   % 1 d h h j h s s k v y y q q 1 b W Q K F D D D K Y Q K K K F D D N b ",
"S b K D N D D B D D S s 6 w y 6 c M v Q ! ( T ( Y | 3.N % 1 2 % 6 h M j h h h h 0 q s w 1 q b Y D D D D K U T Q D F K D S M b b ",
"b v K D M D B M N B D j 6 6 q 6 s k u ' ] ! K ( ( ] ..j % o 7 - . y b h s y q 6 6 5 u 2 6 q d N N B D D K Y T Q S F K K S M b M ",
"N N N B B S S S K K d q 2 y q y N M D ( | ] Q Q T ! T ' X.1 % - % w y y q q 6 y q 1 6 q < ; u d j N D J Q ( Y Y K D J K S v v D ",
"N N N N N B B B b N q q s t q Y ( ! ( | [ ! Y L Y Y K Q ..N s   q ; < 0 - 6 q 0 q : 0 q y 2 j s M D N M K Y K K D B D D N k v N ",
"N N N N B B B B v j q y u q y / Q Q / ( ! Y K L / L D M K Y X.v o - 6 t w v D Q Q X.M 1 6 q h v S D N v N K K K D B D D N b M S ",
"M M M M M M M M y 0 q w 6 d K Q Y W Q Q Y K K U Y K K D M N ' Y % 6 6 6 h ( ( ( ] ] ..Y X 6 6 1 6 d M D K K D B B N B S N N N N ",
"S S S S S D D D y q t q y D ( T D K Y U K K L Y D D S S D b D S y ; ; - - Y ] Y ] ( :.f.y %   . w s M D D B N B N N N M M N M b ",
"b b b b b b b b d j t 7 D Q W Q D K Y K K U Y K K Y B k N B D K s - ; 1 6 U ] ..] ] 3.r.z.Y X   q 1 q b B N D K D D S N N D B b ",
"q q q q q q q q q y 6 6 W ( ! ] ( ] ( Q Y Y K M Y Q Y N M N N N B 5 % < h ] ! ] [ 1.d ] h.! v.y ;   . s D D D N N B M v v N b h ",
"7 7 7 7 7 7 0 0 6 6 6 q F Q ( Y Q ! Q Y Y Y F v B N M b c M M M D - % $ % K ( ( X.Y Y Y ' t.h.*.] q X 6 j v M N d h s t y s y 6 ",
"q 6 6 q q 0 6 6 t : s t c K ] Y ! Q Y Q ' Y v j v v v N M N v v D % : O   q N K Q K Y K Y Q ( r.a.+   : 8 6 6 q 1 6 q : 6 u 6 2 ",
"; y y 1 - 2 2 & q ; q d 1 K D ] ( ! T Y K D M N y y j N N v u s y X q X O O 2 6 q W Y D Y Q ] 0.5.d e 6 6 6 3 q 2 1 > y 1 @ y 6 ",
"O % - ; 1 1 1 < 1 % y a 1 u N [ ( Q Y K D S M h j j j d d y y q 1 X N D ;   O % 1 D Q F L Q T W ) _ _ y : 7 7 7 6 q 7 8 s 8 + ; ",
"s 6 q M K N M K N M S s q $ D Y Q K B N N F M q q q 0 0 a % 0 1 ; : 5.a.p.; . % X . D K B ( Y W ( ..+.v 2 q 8 3 y 6 y ; ; B _ w.",
"( ( X.-.%.X.X.*.#.-.W N 6 6 N K Y D b j j v d 1 + + & 0 j   - .   s d.w.X.4.!   1 X M b y M D ' _ K L V e 7 6 2 8 6 ; s K ] x.u.",
"( [ ..X.| | ] / ( ( ( D w c y h - 6 s v c j d y   O .   O   6 ; v F 3.Q k.5.w.Y   - q y y y y a v v V b 1 3 7 6 6 e s Y [ P P 2.",
"L K U Q ( ! Y J L B ( N h y % & - 6 s h a 6 ; < y h y O   j b K / K ) X.Q U T D D K d 6 6 7 q 6 > d l y % 3 7 6 q 2 P o.X.*.] { ",
"B U Q W Y Y L D L S D b s 6 ; 5 0 6 ; - < ; 1 y ( L K b O v O h ( K Y Y Q S K F B c S h 7 y q 5 1 q : 2 6 8 : 3 6 ~ =.[ ) ] ..~ ",
"v N Y Y Q K v K v b h b 1 h & ; ; 1 - 1 6 ; 5 Y Y K D D y h   2 Y L ( D M J N Y U D K S 7 - < : ; 6 3 ; 7 7 % 3 6 P +.:._ X.Q D ",
"N D Y Y Y S d b j q t 1 & & c N . - 5 h & 1 c N B M D h v y 0 y a M K s y D D Y Y Q ! N 5 2 q < 6 @ > 7 ; 3 2 8 3 v _ _ ] R Q Y ",
"s v K Y L b q 0 q q 5 - . X.3.r.X.' D d q 6 D M v c h S y Y O : - s B b b N N K M M v q - & %   1 O y - -   : 2 6 j ( ] Q k n K ",
"1 q j M b d 6 1 6 0 1 ; X.! w.t.w.p...D d 1 d B N N N v K v s % < y u w q 1 : 6 0 6 O $ 5 X   y   5.x.*.u.8.1 O 6 6 q B K P D L ",
"q q 6 6 6 q w q q $ D o.X.X.X...] ( Q c - 1 s K M b D b y K h B X 5 6 1 6 w q 6 % q K s   b t.Q 4.=...:.{ *.D j y s y s q s k G ",
"y y 7 6 6 7 y 6   J ( ( ..( ] F K K Q 5 7 6 6 y s v j v d j F D ; - 2 0 q 6 < ; M h v D Q -.5.) [ ( ] n ] ( L j 2 1 7 6 s j N N ",
"q w q y q q q % v ] 4.] o.( Y K K U K % ; + 1 s h w v j k v b N y . ; q 7 6 t B Q Q [ 7.:.| ] ] ) Q T T K R K ! ; 1 e w i e j b ",
"6 q 6 q 0 0 q $ K ( Q ..( U Y Q ! K s K 1 s 6 1 q 7 q s q q v D q . q s q d k L K Y Q Q Y U Y Y L K K F G K N Y D s : 3 2 q q u ",
"  6 y 6 u q 6 1 D Q } ( Y U E Q W Y D Y + 1 2 6 q q 6 8 6 w 7 6 % j N c v M y Y Y F S D D N B K B V V F G V N n G j ; * 8 6 3 3 ",
"Q + 6 6 1 8 1 : b K Q E I Y Q ( Q K Z D ; 6 1 ; ; q 1 q e - 7   & q q y y s b d D D D D D F J D K N D K d f k b 8 y ; 3 7 * 3 8 ",
"[ ( s   + ; 6 s N F K H D D H D J N m N j v j y 6 1 5 q 6 6 6 ; X O   u q q u d v D K D F U K D D F K y q j e 6 1 % @ @ 6 q ; 6 ",
"Q Q { X.k % a s M M M M M M M v v j x m J J J Z j < 9 0 6 q q a . q h 6 5 t ; 6 v N D D D J D N b . q 7 1 3 q 1 7 K T ~ D 2 6 6 ",
") Y ( Q L ;   N D N N N M v j g x x m m H Z Z M x a r 6 y 1 h q . 1 v ; q < 6 y v k c M M v v M j 1 q 1 1 1 - t Q Q X.( ] Q q 1 ",
"! ) Q Y Q s ; 2 F D D D S v g g M m Z C A m m m x M t 9 4 N Z D k y q N s % 6 d d y y h h a a j q 1 0 t , Q ( Y Q X.( ( ' Q Y J ",
"R R G ( ( d s   w y h N D M b N m m m A C A A C x h r 9 9 ` I 9.j.d.] -.D 0 & - 5 6 q y y y w w y 9 4 g D ` ^ ] J Q @.Q E Q Z Y ",
"! T _ ( ( ~ N X - < r v M x x M m x z C z C m x g 9 r 6 U C ^ <.p.w.b.;.t.s % y O ; 6 0 q y q 2 q 0 v Z ` E ` I H U I Z H Y H J ",
"T ( Q ( T Y j o ; 1 x v M g N M C C m m m m x g p p q 4 1 H I ^ X.T Q Y 7 j < 1 % : 1 q q 6 a 6 9 D I Y E I J M I J H H J J J H ",
"Q ( L Y R ] Q . 0 1 p M N j v M x x x m m m x g p p 9 , I J I Y / ( Q Y q q 1 & 5 1 O 1 6 q 6 6 j H W Y E J Q / S D H H H S N M ",
"Q Q K L R ! )   O 5 g N v b c h m m m C C m x g r q 1 N W Y Y H ) ] Y Y s o 6 j | X.Q - . - q < h N Y Y H H M j y y y s g s r 6 ",
"Q Q Y Q Y K ! y % 6 r x s b j h M m m m m j p 0 9 4 j I Q S Y D K L D L K t L *.Q K ;.X.    ; 1 y s s y 4 S x y 6 6 9 q r q 6 1 ",
"( ~ T Q Y ( ] ..D y = r y g s N p p p y t 0 4 - , p D J Y D v F v N D S ..o.;.] X.K Y Y %.S 6 1 1 2 y 3 1 d a 7 6 7 q q q q y y ",
"T ! Q Q Q X.Q ] ] J t q r p y x 0 6 6 6 9 6 4 < 6 s M Y l T k N D S F M [ 4.] U Q ( #.%.Y ..D O 1 : y 1 3 % 6 w q 6 1 2 q y w 8 ",
"P T Q R T T K D Y Q H q q r y q q 0 6 6 6 0 7 6 w 7 F G V N Y v S b M M Q ] ! Q Q Q Q K K Q X.J - ; 6 q i : 3 8 w 8 7 8 w e 8 3 ",
"~ Y L K D v Q Q K Y B 1 6 6 y q y q 6 1 1 5 2 1 2 d N L K n K F v N M S Y ] Q S D K b K K D D K M l @ > > w w i : y b j 6 - 1 e ",
"F G L G Q ( K Y Y L v 6 1 q y q y y q 5 ; 1 s D K F D N M M N B N b v j M ( D j v M D v N N D D D D y q y y 0 v K Y | *.*.Y q 3 ",
"6 i v s q q 7 j b y 2 1 8 e y y 1 u 6 w y 7 N K D D D D D D N M D M B M b v c M j v S b N b M j j v y y y u h Y ] ] ] o.7.X.v 6 ",
"1 1 6 1 6 6 3 w 6 1 2 8 7 6 q s 6 d 6 q w 5 y a S M b M S D S N d v M d h s N M N D J M B M M j q y y u q d F X.] ] Q ( ] ' D 6 ",
"w 8 6 6 6 3 3 q 6 3 2 7 e e 7 2 2 q t 1 6 q 1 q t y j N D S j y 6 w 7 6 s v K N Y L K v M b N v 6 q q y 6 j Y o.( ) / ( Q U Y v ",
"8 2 > 3 1 ; 1 7 7 6 6 8 y y q 3 6 1 w 6 < $   q 1 6 q s j d y 6 y q 1 h M S Y W U K D j v v v d q 7 6 q 6 v Y ( ] ] ] ..( Y ] ] ",
"q 2 > 6 ; X % % 7 2 6 q q 6 q d y s 1 < D u.%.q 1 1 1 < 1 5 0 q q w 7 h s j b K D D J N D B b y y q 6 q q M K K ( Q T ( Q Y / ] ",
"- : q k u 7 v F N s 6 6 w u u u j q s Q | | X.( O ; 6 6 5 1 1 1 6 r h h d v N K D D J D Y J Z s q q 6 q y D L K K K K D D F D L ",
"Q G F ] ] ! ] ( Q T N q 2 e s y 7 1 Y [ ! ) ( -.O : q q 6 < 1 1 #   1 9 s s j K Z N Z M J H N d 6 q 0 y s J Y W F T ( D D K S U ",
"( ) ] X...X.[ ] Q ( ] k 1 w q : 1 q b Y T Y W ( q 1 2 6 6 y 2   ] ( J I Q ( H D D D D D Z N M v h q w w j F D K U K K K K K Y T ",
"! ( [ X.{ [ ] ] Y D Y N q 7 w d ; j Q ( Q Q W Y v   t 7 6 q y ;.<.| I K H U D D S D D D Z N M v b y q q v U K K D K L Y Q Q Q Q ",
"Q ( ] ] ( ! Q ! G R P d e q q b v D Y W Y K Y / ( M - 6 ; $ J [ 3.} E I N D S A N C Z Z Z C m M v y q q h D K U F K Y Q Q W U K ",
"R ( _ ( R L K K R T k w l 6 * Q k.#.Q U K F K Y W J 5 % $ D ] ( ] / E Y N Z Z Z M m N C C N M M y y t q q d D Q Y Q ! ( ! W U K ",
"Y Q ( ( Q Y Y Y ! b 8 6 d w q ( 7.%.( K K Y K M J D Y %   K Y ( ^ E I I m m N N m M m M M M M v q t q q q d D Q ( ( ( ( ( ) ) ) ",
"T Q ~ ) ] ] ) ( Q u q 6 : s V D B D F D D D J K j Q X.1 . y ] | W Y D Z h x v M m M M M M m v x y y 6 q d N Y Q ' ( Q W Y T Q Q ",
"! Q Q ( { X.] ! Y 1 6 y 2 y M B D B D K D b N U Y ] ;.y & y Y ^ D H m m x m x m M M m M m c x j r q 5 t c D Q Q Q T K D N M N N ",
") Q R ! ] ] Q K w 6 8 2 7 b D D N D D D D D N c L K v h % 5 y v s x g M Z S x v m m m M m x j g 1 7 6 y h M Q ( K D D N M M M N "
};
