/* XPM */
static char *_ca6a2fdb53e402582b9ce024f41ba1fGj8n4s3ALk9dE9ue[] = {
/* columns rows colors chars-per-pixel */
"64 64 192 2 ",
"   c #010205",
".  c #020907",
"X  c #02050A",
"o  c #09070C",
"O  c #04090C",
"+  c #090A0D",
"@  c #07100F",
"#  c #0E100F",
"$  c #010611",
"%  c #030B12",
"&  c #0A0E12",
"*  c #0B0F18",
"=  c #100F14",
"-  c #061115",
";  c #0C1114",
":  c #05121A",
">  c #0C141A",
",  c #0E1819",
"<  c #121315",
"1  c #12161A",
"2  c #15191D",
"3  c #191B1E",
"4  c #0D1C23",
"5  c #151D23",
"6  c #1B1D22",
"7  c #201F24",
"8  c #162027",
"9  c #1C2125",
"0  c #122229",
"q  c #1D242A",
"w  c #1F282E",
"e  c #1D2730",
"r  c #1E2A32",
"t  c #212326",
"y  c #22262B",
"u  c #242A2E",
"i  c #292C2E",
"p  c #242730",
"a  c #242C33",
"s  c #292E34",
"d  c #252F38",
"f  c #273036",
"g  c #2B3135",
"h  c #263139",
"j  c #2C343B",
"k  c #2F383F",
"l  c #313436",
"z  c #32363B",
"x  c #333A3D",
"c  c #393B3D",
"v  c #3D413E",
"b  c #42443F",
"n  c #2D3740",
"m  c #2D3941",
"M  c #343C42",
"N  c #3A3E43",
"B  c #3A3E48",
"V  c #364143",
"C  c #3B4245",
"Z  c #354249",
"A  c #3C454A",
"S  c #3E484C",
"D  c #3D4550",
"F  c #3D4A52",
"G  c #424445",
"H  c #494B47",
"J  c #42464B",
"K  c #444A4C",
"L  c #4A4C4D",
"P  c #51514F",
"I  c #404652",
"U  c #434C54",
"Y  c #4B4E51",
"T  c #454E58",
"R  c #465055",
"E  c #4D5255",
"W  c #4E5857",
"Q  c #45535B",
"!  c #4B555C",
"~  c #4E595E",
"^  c #525355",
"/  c #565857",
"(  c #585A57",
")  c #52565A",
"_  c #545B5D",
"`  c #5B5C5D",
"'  c #56605F",
"]  c #4B5761",
"[  c #4D5A63",
"{  c #4D5D69",
"}  c #515E66",
"|  c #505D65",
" . c #525C64",
".. c #5A5F63",
"X. c #5B5E62",
"o. c #525E6A",
"O. c #525F69",
"+. c #545E6A",
"@. c #525E6A",
"#. c #545F71",
"$. c #4E606C",
"%. c #4F606A",
"&. c #556165",
"*. c #5D6264",
"=. c #536068",
"-. c #53616A",
";. c #50616B",
":. c #546169",
">. c #55626B",
",. c #56616A",
"<. c #50606D",
"1. c #52636D",
"2. c #54606C",
"3. c #54606E",
"4. c #55636C",
"5. c #56656C",
"6. c #56646F",
"7. c #55626B",
"8. c #5A636E",
"9. c #59666F",
"0. c #5A656F",
"q. c #5C646F",
"w. c #5B656B",
"e. c #57686F",
"r. c #5E696D",
"t. c #566270",
"y. c #576570",
"u. c #576572",
"i. c #556571",
"p. c #556371",
"a. c #5D6770",
"s. c #5B6775",
"d. c #5A6673",
"f. c #5E6871",
"g. c #5C6A74",
"h. c #5A6778",
"j. c #5F6B79",
"k. c #5D6979",
"l. c #5F7078",
"z. c #626465",
"x. c #686866",
"c. c #62676D",
"v. c #62656A",
"b. c #64696D",
"n. c #646A6D",
"m. c #6A6D6D",
"M. c #67706F",
"N. c #626B74",
"B. c #626C76",
"V. c #626D73",
"C. c #6A6E72",
"Z. c #606C78",
"A. c #656D78",
"S. c #636D7A",
"D. c #667173",
"F. c #6F7074",
"G. c #6C7374",
"H. c #677079",
"J. c #64727B",
"K. c #6B737E",
"L. c #6C747A",
"P. c #6E787B",
"I. c #717475",
"U. c #70757B",
"Y. c #70777D",
"T. c #74777C",
"R. c #72767B",
"E. c #757B7D",
"W. c #78797B",
"Q. c #797D7E",
"!. c #76807F",
"~. c #647080",
"^. c #687482",
"/. c #697380",
"(. c #6E7B83",
"). c #737C84",
"_. c #797C82",
"`. c #747E8B",
"'. c #768187",
"]. c #7D8286",
"[. c #728188",
"{. c #7B868C",
"}. c #7A8391",
"|. c #7D8A92",
" X c #818489",
".X c #82898D",
"XX c #808E97",
"oX c #8A8D92",
"OX c #8F9297",
"+X c #85929A",
"@X c #8A979F",
"#X c #919499",
/* pixels */
"< & < +   3 N J J c G t   + W.b.K.^.j.3.3.s.y.[ { { { { { { $.-.-.,.,.,.,.,.,.-.| | | | | [ [ [ ! [ ! Z q - % ; z C x   = & o & ",
"    & +   2 c C G g x 3   & F...A.Z.t.] [ 3.3.[ y.y.y.y.y.1.1.{ [ [ [ [ | -.-.,.| | | | | | [ [ ! [ ~ Q S A C C U E G X & o     ",
"    + +   2 l z N g z 6   2 T.U.H.B.8.| +.d.d.,.o.-.6.q.y.3.o.[ [ [ [ [ [ [ [ [ [ [ [ [ [ [ [ [ ~ ! ! !  . . ._ J J z   X o o = ",
"O X % O   1 g g M k M 9   - c.Y.N.a.8.,.a.f.q.,.! [ o.6.q.6.,.| [ [ [ [ [ [ [ [ [ [ [ [ [ [ [ [ ~ ! Q Q ! Q E U ..) N X X X o < ",
"% X $ X   2 j j M M B q     j S ~ Q Q ~  .~ T U T R Q ! ! Q Q U S D F F F U U U U U U U U U U U ! ! ~ ! U U I U K C g O X       ",
"> % : : - w M M M M M g 8 5 w w 2 ; * , 5 > % O , > > - % % $ $ 4 > : : : : : : : : : : : : : : X O % % O O % * X X &   X +     ",
"j h n m h M S M M n m n n n h f 2 +   X O       % O X     . % - X X X X X X X X X X X X X X X X X X       X     X   & X + + X   ",
"[ ] ,.,.Q Q U n M m j d a h a M q &           + X       O , 9 a j m M F Q [ -.4.| | | | | | | |  .R A A S C k u ; O &     X   X ",
"~ ! +.[ ! T M M j j h h h g g g y +       y 2 > 9 1 +   - L.n.L.V.B.B.D.j.f.6.,.f.,.[ [ Q F F Q T Q ~ ~ U M s q 9 X O   y Y W ) ",
"U U ] ! Q Q A A m m n n n j j j q       + C K E E C u & > C.&.w.V.j.B.D.j.f.q.6.g.[ Q Q Q Q Q [ Q ! ~ ~ U A j s 2   + X z v.G.F.",
"Z M S A A A j j j j j j j j j g p & + X X x N C J x 9 O ; C.n.H.D.H.H.J.H.J.B.j.H.| U U Q Q Q ! U I I J A N x g 2   O O A P.].].",
"x j M j j x g j j j j j j k j k 6 + O     l l g B z 2   X *.w.C.w.q.q.f.g.q.,.-.g.Q m j m m j j j x g g s s s a 5   O O C L.E.R.",
"M k M k z x z x g g k g g g g g 6 % %     M J K J C 5   X _ w.q.,.,.6.q.6.,.| [ [ Z a r a a r r p p y y q y y u 9   O O C G.H.n.",
"C z z y 6 9 2 6 5 2 2 2 2 2 2 2 5 * > X   M B B M B 5 X O ~ w.w.q.q.q.q.,.| [ ! S m a h j j j j p p p p u u u p 8   . O S L.L.n.",
"l t 6 + X       X   X               % $ $ B A M A D 8 $ X D T U Q Q Q Q F S Z m h r r h h a a h a s s s s p p u 9   X O S L.D.w.",
"2 & &         + X X O X X X X X     * X X A I S M S 8 $ X S Q T U S S A M j f a a a h j g w w p u p s s s u y y 9   X X C n.*.E ",
"X o X + O . - . X . X X X X O X   X & &   u q , f u 1   . 9 z N x g C g g 1 3 1 2 2 2 1 < ; 1 6 < < < < < ; < ; 2 O   X L v.v.*.",
"X +   . O X .                       o     @ + . . . .           O       +                     o                 X O     Y I.v.l ",
"  X   > 9 9 u q a a u u u u i i <   X X C E E Y E E ) ) J i < X     O + +   O ;             X +                   X     N *.J + ",
"  X + q M A U K S S S S A C G G i X X O m.R.!.!.E.R.Q.].W.X.L L +       O     X             X X X X X X X X X X       % g V x 9 ",
"o + + u C C S C C A C V N N c c 7   X   m.v.G.E.P.D.C.I.F.z.` z.1     + ..*.C.*.v.w.w.w.r.r.w.w.q.w.q.w.q.w.q.w.N.w... .S k s k ",
"& O + u C V V k S S S A C N N c 6       F.G.L.G.L.D.m.m.x.X.` ` 6       v.*.F.v.N.n.r.n.V.g.q.:.N.N.N.N.N.N.N.N.:.N.A.q.M j j M ",
"o   X a K S S V A A A C N N c c i   X   F.G.n.W E ) ` ` ` ` ` / 3 o & o *.*.L.Y.L.H.D.H.L.H.g.-. . . .[ [ [ [ [ T ! ] ! h h a e ",
"+     a K S A V V V V x x z z l 6   & X v.n.G.' E ` &._ ` X.` ^ 6 o     / X.c.c.q.,.+.=.=.[ Q F h h h g g g g g M d a M a n h a ",
"o X   u S V K S V A S A x g z c 6       I.R.v.) ` ' ` W E ^ / E 6   X X ` X.*...w.w.w.4.9.9.Q m j j j j j j j h d d d d d d d d ",
"O     u C x Z M Z A S V z s s l t       F.L.*.W W ) ) E Y ^ / ^ 6   X X E _ .._ ~ ~ ! ! [ [ F m j j h h h h h g d h h h h h h h ",
"X   + a C V C V x V V M z g z z y X     F.G.*.W W W E L L ^ / ^ 6   X   C J K C B M x x Z Z m a j j j j j j g g k k k k k k k k ",
"    ; a C C Z V M V M x z z l l t       m.G.v.' ` ' ) L L E ^ ^ 3   X o x J K K C M x x M C M x M x M x n k j j g f g g g g g g ",
"K K ) w.H.H.n.n.D.n.w. .) E L J 6       m.G.M.n.n.n.*.E L Y P L t .     ; & O   2 > ; ; 1 2 2 2 9 9 6 5 6 5 6 5 g g g g g g g g ",
"C.b.F.L.H.H.r.r.n.w. .~ ) E K G 3       m.G.G.G.L.G.z.W L L Y L 9   .   + ; ; ; + X X + o O o & X . X X X X X X + O + + + + + + ",
"C.b.F.n.*.r. .*.~ E U R E E Y L 3       v.M.G.G.G.D.*.E J L L L 9   O     X X   + X X & o X X o o + o + o O o O                 ",
"I.C.W.n.n.L.C.P.E K S J Y Y K G 3   X   v.n.n.M.n.v.` L G L Y L 9   O .     O X X   + & &     X X               & & & & & & & & ",
"U.I.F.m.v.*.*.&.Y L K K Y L J C 9     + L *.^ E J C C C G C N c ; @ X     O + O O O + + + o o o + o X     X O O ..T.P.Y.`.E.L.L.",
"E Y L L K K J G L L K L Y L K C 3       + O               X . X   . X           X X . . X X     # o             *.`.E.).'.).(.(.",
"E E E E E E E E L K K L Y L K C ;   O   .   O < O O O             X & + X X O O                       # +   X + _ P.G.A.P.A.C.A.",
"K K K K K K K K L K K L L L G C 3     +           O O       + O ) b.U.U.C.b.m.F.v.v.z.v.v.v.v.v.z.v.z.z.c     X ) C.v.w.n.w.*.w.",
"^ E E E Y Y L L W E E E ) E L J 6     3 3 1 1 ; 2 3 3 +         _ C.E.T.L.F.L.U.I.I.I.I.I.I.I.I.x.I.m.I.H     O _ F.b.v.b.w.*.w.",
"J G C C N N c c z z l z c z g i     O c K K E _ L ^ K u ; O     Y ..b.v.*.*.*.*.*.*.*.*.z.*.z.z.v.x.( z.G X     _ m.z...*.` ..&.",
"                . X   X + +       X + C L C c J C Y G t + + + X E _ ` _ _ .._ W E E W W W W E E L ^ G ^ c       / m.` / ` ^ / _ ",
"      X + + & & X     X O + X     & + K ..Y C K J E K y + + + O ` *.*.` ..*...E ` _ ` ` ` _ _ _ L ( L ( c   +   ` I.v.` ' ` ` *.",
"      X O         +   ;   O X + + ; 6 u s s y 9 s u y 6 1 & + X i g c c g i u z a z g g g f j w u i i u t < +   + # # < < < < < ",
"6 2 ; ; 1 5 1 * X +     + &         X + + O     X X X           O       . .     X % X O     O X X                   X X X X . X ",
"_ ^ C g l N l 9   +   1 E .._ E / ) ) ) ) ^ E E ) ) ) _ X.....*.*.` v c u + + +   X   : 8 5 4 $ > ; - % O X                     ",
"*.X.Y z s x l 9 X + + 6 _. X X].I.U.U.U.U.U.U.U.T.T.T.U.U.T.U.U.W.Q.) E x   X O ; O 8 D.@X{.{.+XL.L.P.L.n.~ S x z j g g g i i i ",
") *._ B g M B M       2 _.Y.L.T._._._.T.T._._._.T.T.U.U.F.F.C.C.C.m.G L J - X O a n.{.(.(.|.|.g.(.[.{.|.{.(.A.w.n.r.r.*.&. ...` ",
") X.X.J s s g g       6 _.Y.L._._._.T.U.F.F.F.F.b.b.b.b.b.b.b.b.` ` G L N     5 P.{.|.|.).J.^.J.l.l.j.j.j.B.B.B.w.w.*.&. .` ` _ ",
")  .) I M g s g & X   y _.T.C.F.N.N.c.c.v.*.*.X.X.X.......X.X.*.G H G G g   O L .X'.J.B.j.g.J.g.l.g.1.[ Q Q Q Q [ ~ ~ ~ ~ E E ~ ",
"y q y p p y y p O     y _._.L.C._ ..*.v.b.c.v.v.v.v.*.*.*.X.X.X.L H c l u     E {.).g.B.g.{ y.g.{ { { { { { [ | ! ! ~ ~ ~ _ _ _ ",
"g f a a y u p s X 1   q F.].b.b.x.x.v.v.z.z.z.z.z.*...` ` ..*.z.^ G H H t +   S {.'.V.9.q.,.g.y.%.[ Q Q [ [ | | ] ] ~ ~ ! ! ! ! ",
"g g a a s s a a   X   q T.F.z.b.z.*.*.X.X.` ` ` X.` ` ` X.z.z.v.P b G v 3     C {.'.V.g.d.,.g.y.1.[ Q Q [ [ [ [ | |  . . .[ [ ~ ",
"a w w a g k g a X   X s .XC.C.T.X.X.X.X.` ` ` ` / / ` X.X.X.X.` L v G c 2 X X U {.'.j.g.q.3.g.6.1.[ ] Q [ [ [ !  . .[ ~ ~ ~ ~ ~ ",
"j f a g j x g u     X y F.*.v.U.v.v.z.z.z.z.z.z./ ` ` X.X.` / ^ L c c g &     C {.`.j.d.d.3.g.y.{ [ Q Q [ [ [ !  . . .[ ~ ~ ~ ~ ",
"r q 5 5 5 5 > %   +   + s u u g y y t t t t 9 9 6 9 t t 6 3 1 ; X   X +     % Q {.`.g.s.y.p.h.t.] Q Q ! [ |  .~ ~ ~ ~ ~ ! Q E E ",
"$ $ O X X O % * X ;   X + X     X               X X X X         &   X X   X X M {.`.j.d.u.#.s.t.] ! Q [ [ | ] Q [ [ ~ ~ ~ E ! E ",
"X X O X   X : 5 6 y y y i + X + X X X X         + O X X X + + & ; X   $ $ > $ n }.`.g.s.u.#.h.p.o.[ [ [  .] R S ~ ~ Q Q Q E E E ",
"~  .~ U M x K _ ) Y ) E ^ +     O O X X X X             X + & ; +.U I T T ] D f.}.`.j.s.u.#.h.t.d.,.|  .[ Q S M g f s a a a a a ",
"N.N.q.w... . ._ ) E ) E _     X   >   X X & X   X +   X ; X % n.`.`.).).).`.`.}././.~.S.j.j.s.s. .! ~ [ +.w.M X $   $     X   X ",
"H.H.A.V.n.w.w.w..._ ) E )   X + 2 x s g s g s u s k q 9 2 X > Y.K.J.A.Z.N.Z.S.S.Z.j.g.s.s.t.t.+.,.|  .] ~  .M $ *     * + + X   ",
"+.+. . .) E E E E Y K J L   X & ; M N C k z g g g x s u 2 X 1 L.B.g.d.3.o.o.o.3.o.o.o.@.o.o.o.[ U R ~ Q Q ) M X O   + ..C.].#XOX",
"U U U S S S C C Y E U K K         x C C g g s s u k a u 6 ; 2 n.A.Z.d.3.o.[ [ [ ] ] ] ] ] [ [ [ ~ ~ ~ Q !  .x   5 * + _._.].oX].",
"T T T U K K K K k C C J G X       M J S g k g s g z s y > % 2 c.H.Z.g.6.| [ [ [ [ [ [ [ [ [  . .w. .E E  .w.J & ; X   _._.T.Q.m.",
"U U K S S S S S z J C J C + X X   M A B s z g a g x g q X X 9 L.B.j.q.-.[ [ [ [ | | [ [  . . . .! T T  . . .k   & X   T.T.C.v._ ",
"T U U U U I I I C E N N l X     X M S M g M M g k x j a : * 9 w.J.J.j.e.4.-.-.=.w.w.4.,.:.+.|  .+.) +.*. .U p X % X X C.U.v.) Y ",
"$ $ $ $ $ $ $ $ X ;   + ;   X &   M C M g B M g g g a a , O   q 8 0 4 : : : : : - % % $ O X X X $     X     X       X *.F.*.Y ^ "
};
