/* XPM */
static char *_9a3035c4b384e83e17c618cf833faafYEoIySY7v4RV4IO4[] = {
/* columns rows colors chars-per-pixel */
"64 64 52 1 ",
"  c #230027",
". c #290027",
"X c #330027",
"o c #35002A",
"O c #380028",
"+ c #3D0028",
"@ c #3E0729",
"# c #7E261F",
"$ c #410728",
"% c #430B28",
"& c #450C28",
"* c #4D1027",
"= c #541326",
"- c #5E1021",
"; c #581425",
": c #5B1825",
"> c #5A1D29",
", c #621823",
"< c #661922",
"1 c #6B1C22",
"2 c #6D1D21",
"3 c #652529",
"4 c #6D2A2A",
"5 c #752421",
"6 c #792521",
"7 c #732D2A",
"8 c #84291E",
"9 c #8C2E1D",
"0 c #972F18",
"q c #922F1C",
"w c #9A3219",
"e c #9C341A",
"r c #A33718",
"t c #843125",
"y c #883B2B",
"u c #A03E22",
"i c #A9411F",
"p c #AF431E",
"a c #B84D1F",
"s c #97432C",
"d c #9F462A",
"f c #AC4825",
"g c #A74C2C",
"h c #B94F25",
"j c #BF5321",
"k c #B8532B",
"l c #BC582E",
"z c #C65C2D",
"x c #C95D2B",
"c c #DA692F",
"v c #D86930",
"b c #E06D30",
/* pixels */
"&&&&&&&&&&&&&&&&&&&&&&&&&&&&&&&&&&&&&&&&&&&&&&&&&&&&&&&&&&&&&&&&",
"OOOOOOOOOOOOO@&$OOOOOO@&&&&&&+OOOOOOOOOO@%%%%%%%%%%%%%%%&&&&&&&&",
"llllllllllllly+3lllllly@&&&&+glllllllllls-,,,,,,,,,,,,,,*&&&&&&&",
"vvvvvvvvvvvcbsX4bvvvvcsO%&&+Xlcvvvvvvvvcg,<<<<<<<<<<<<<1*$%&%++$",
"hhhhhhhhhhhgst5thhhhhhu51%+dskhhhhhhhhhhu88888888888888866:$>ss5",
"wwwwwwwwwwr=o5eewwwwwwee9@Xbci0wwwwwwwwweeeeeeereeeeeeeeee6@4bcw",
"eeeeeeeeeee1;#eeeeeeeeee9@Xcviweeeeeeeeeeeeeeeeeeeeeeeeeee5@4cv0",
"eeeeeeeeeeeeeeeeeeeeeeee9@Xcviweeeeeeeeeeeeeeeeeeeeeeeeeee5@4cv0",
"eeeeeeeeeeeeeeeeeeeeeeee9@Xcviweeeeeeeeeeeeeeeeeeeeeeeeeee5@4cv0",
"eeeeeeeeeeeeeeeeeeeeeeee9@Xcviweeeeeeeeeeeeeeeeeeeeeeeeeee5@4cv0",
"eeeeeeeeeeeeeeeeeeeeeeee9@Xcviweeeeeeeeeeeeeeeeeeeeeeeeeee5@4cv0",
"eeeeeeeeeeeeeeeeeeeeeeee9@Xcviweeeeeeeeeeeeeeeeeeeeeeeeeee5@4cv0",
"eeeeeeeeeeeeeeeeeeeeeeee9@Xbviweeeeeeeeeeeeeeeeeeeeeeeeeee5@4cv0",
"eeeeeeeeeeeeeeeeeeeeeeee9@Ojheweeeeeee#59eeeeeeeeeeeeeeeee5@4cv0",
"eeeeeeeeeeeeeeeeeeeeeeee9@@e0weeeeeeee;O5eeeeeeeeeeeeeeeee5@4cv0",
"eeeeeeeeeeeeeeeeeeeeee0q8@Opieeeeeeeee1;599qqqqweeeeeeeeee5@3xx0",
"eeeeeeeeeeeeeeeeeeeeee8,,%Xbviweeeeeeeer5O&<<<,qeeeeeeeeee5@:e0e",
"eeeeeeeeeeeeeeeeeeeeee81,%Xbbiweeeeeeeee5o&211<qeereeeeeer6@:ree",
"eeeeeeeeeee5,<<<<<<<<<=$%&&X.9eeeeeeeeeeerq@%%@:<<<<<<<<&@$&%@oe",
"rreeeeeeeer61111111112;%&&&&@qeeeeeeeeeeeeq@&&%,11111112*&&&&&@r",
":::::::::::************&&&&&%;::::::::::::;%&&&*********&&&&&&%:",
"OOOOOOOOOOO+++++++++++++++++++O@%%%%%%%%@O++++++++++++%%%%%%%%%%",
"sssssssssssssssssssssssssssssss7$&&&&&&$7sssssssssssss=;;;;;;;;;",
"vvvvvvvvvvvvvvvvvvvvvvvvvvvvvvcsO$&&&&%Oscvvvvvvvvvvvb-111111111",
"xxxxxxxxxxxxxxxxxxxxxxxxxxxxxxxd33$&**;;sxxxxxxxxxxxxx255555555<",
"0000000000000000000000000000000hblO%2<0ee0000000000000eeeeeeeer<",
"eeeeeeeeeeeeeeeeeeeeeeeeeeeeeewhclO%1<qeeeeeeeeeeeeeeeeeeeeeeer,",
"eeeeeeeeeeeeeeeeeeeeeeeeeeeeeeeww9@%1<qeeeeeeeeeeeeeeeeeeeeeeeee",
"eeeeeeeeeeeeeeeeeeeeeeeeeeeeeeeee9@%1<qeeeeeeeeeeeeeeeeeeeeeeeee",
"eeeeeeeeeeeeeeeeeeeeeeeeeeeeeeeee9@%1<qeeeeeeeeeeeeeeeeeeeeeeee5",
"eeeeeeeeeeeeeeeeeeeeeeeeeeeeeeeee9@%1<qeeeeeeeeeeeeeeeeeeeeeeee,",
"eeeeeeeeeeeeeeeeeeeeeeeeeeeeeeeee9@%1<qeeeeeeeeeeeeeeeeeeeeeeee8",
"eeeeeeeeeeeeeeeeeeeeeeeeeeeeeeeee9@%1<qeeeeeeeeeeeeeeeeeeeeeeeee",
"eeeeeeeeeeeeeeeeeeeeeeeeeeeeeeeee9@$65qeeeeeeeeeeeeeeeeeeeeeeeee",
"eeeeeeeeeeeeeeeeeeeeeeeeeeeeeeeee9@@reeeeeeeeeeeeeeeeeeeeeeeeeee",
"eeeeeeeeeeeeeeeeeeeeeeeeeeeeeeeee9@@eeeeeeeeeeeeeeeeeeeeeeeeeeee",
"eeeeeeeeeeeeeeeeeeeeeeeeeeeeeee8,-%@eeeeeeeeeeeeeeeeeeeeeeeeeeee",
"eeeeeeeeeeeeeeeeeeeeeeeeeeeeeee81,%@reeeeeeeeeeeeeeeeeeeeeeeeeee",
"eeeeeeeeeeeeeeeeeeeeeeeeq555555,**&%:;qeeeeeeeeeeeeeeeeeeeeeeeee",
"eeeereeereeeeeeeeeeeeeeeq<11111;%&&&%@9ereeeeeeeeeeeeeeeeeeereee",
"5555555555555555555555552;;;;;;*&&&&&%15555555555555555555555555",
"@@$$@@@$$$$$$@@@@@@@@@@@@@@@@@@$%%%%%%@@@@@@@$$$$$$$$$$$$$@@@@@@",
"44*$>43$&&&&%>444444444444444443:::::::::::::*******&&&&&%>44444",
"cb4OsblO&&&&+sbccccccccccccccccarreeeeeeeeeer<11111,%&&&&+sbcccc",
"vb3.sbl X&&O.scvvvvvvvvvvvvvvvvhweeeeeeeeeeee,<<<<<:@%&&O.scvvvv",
"00eee0ibbXOzbh00000000000000000weeeeeeeeeeeeeeeeeeeq<2%Ozbh00000",
"eeeeewivbXOlvhweeeeeeeeeeeeeeeeeeeeeeeeeeeeeeeeeeeeq<1%Olbhweeee",
"eeeeeeeipOOlvhweeeeeeeeeeeeeeeeeeeeeeeeeeeeeeeeeeeeq<1%$34teeeee",
"eeeeeeewe@Olvhweeeeeeeeeeeeeeeeeeeeeeeeeeeeeeeeeeeeq<1%&+X2eeeee",
"eeeeeeeee@Olvhweeeeeeeeeeeeeeeeeeeeeeeeeeeeeeeeeeeeq<1%@ysueeeee",
"eeeeeeeee@Olvhweeeeeeeeeeeeeeeeeeeeeeeeeeeeeeeeeeeeq<1%Olchweeee",
"eeeeeeeee@Olvhweeeeeeeeeeeeeeeeeeeeeeeeeeeeeeeeeeeeq<1%Olvhweeee",
"eeeeeeeee@Olvhweeeeeeeeeeeeeeeeeeeeeeeeeeeeeeeeeeeeq<1%Olvhweeee",
"eeeeeeeee@Olchweeeeeeeeeeeeeeeeeeeeeeeeeeeeeeeeeeeeq<1%Ozbhweeee",
"eeeeeeeee@@9wweeeeeeeeeeeeeeeeeeeeeeee5,8eeeeeeeeeeq<1%&O.2eeeee",
"eeeeeeeer@@9eeeeeeeeeeeeeeeeeeeeeeee0w5<8eeeeeeeeeeq<1%&&$5eeeee",
"eeee952;:%@9eeeeeeeeeeeeeeeeeeeeeee0xx4&6eeeeeeee955<1%&&$5eeeee",
"eeee8<,$%&@9eeeeeeeeeeeeeeeeeeeeeee0cb3X5eeeeeeee8<<12%&&$5eeeee",
"8865<;=%&&%15#88888888qeeeeeeeeeeeewhhdst555588886<<;;%&&$5eeeee",
"<1*$%%%&&&&%@=1<<<<<<<8eeeeeeeeeeeeew0xbsO$$@1<<<11,$%&&&$5eeeee",
",,*&&&&&&&&&%=,,,,,,,,6999999999999999kly@&&%,,,,,,:%&&&&%199999",
"%%&&&&&&&&&&&%%%%%%%%%$@@@@@@@@@@@@@@@OO@&&&&%%%%%%%&&&&&&%@@@@@",
"XXXXXXXXXXXXXXXXXXXXXX+%%%%%%%%%&&&&&&OXXXXXXXXXXXXXXXXXXXXXXXXX",
"cccccccccccccccccccccbf<1111112;%&&&&Ozbcccccccccccccccccccccccc"
};
