/* XPM */
static char *a8d84a1b0135475dd8ba68819155e65eGeQFo0MsxRfqrcAU[] = {
/* columns rows colors chars-per-pixel */
"64 64 48 1 ",
"  c #000008",
". c #0B0D0E",
"X c #170016",
"o c #141010",
"O c #1C1412",
"+ c #261417",
"@ c #271A15",
"# c #27101B",
"$ c #28101B",
"% c #2C171E",
"& c #2B1B18",
"* c #331D1D",
"= c #331C20",
"- c #391F21",
"; c #44231F",
": c #402122",
"> c #482424",
", c #532824",
"< c #592A27",
"1 c #5D2C28",
"2 c #4F3526",
"3 c #66322B",
"4 c #6A342C",
"5 c #6E372D",
"6 c #733A2F",
"7 c #63442F",
"8 c #7F4B33",
"9 c #804233",
"0 c #8A4836",
"q c #8C4937",
"w c #97523B",
"e c #A85E41",
"r c #986746",
"t c #A76141",
"y c #AF6444",
"u c #B56846",
"i c #BF6F4A",
"p c #B7744E",
"a c #AE7650",
"s c #C2714B",
"d c #C5724C",
"f c #CA7C53",
"g c #C98158",
"h c #CF8C5F",
"j c #D5895C",
"k c #E09564",
"l c #E79D6A",
"z c #F4A56F",
/* pixels */
"@@@@@@@@@@@@@@@@@@@@@@@@@@@@@@@@@@@@@@@@@@@@@@@@@@@@@@@@@@@@@@@@",
"@@@@@@@@@@@@@@@@@@@@@@@@@@@@@@@@@@@@@@@@@@@@@@@@@@@@@@@@@@@@@@@@",
"@OOOOOOOOOOOOOOOOOOOOOOOOOOOOOOOOOOOOOOOOOOOOOOOOOOOOOOOOOOOOOOO",
";888888888888888888888888888888888888888888888888888888888888888",
"3dssssssssssssssssssssssssssssssssssssssssssssssssssssssssssssss",
"3siiiiiiiiiiiiiiiiiiiiiiiiiiiiiiiiiiiiiiiiiiiiiiiiiiiiiiiiiiiiii",
"3dssssssssssssssssssssssssssssssssssssssssssssssssssssssssssssss",
"1q00000000000000000000000000000000000000000000000000000000000000",
"1q00000000000000000000000000000000000000000000000000000000000000",
"1q00000000000000000000000000000000000000000000000000000000000000",
"1q00000000000000000000000000000000000000000000000000000000000000",
"1q00000000000000000000000000000000000000000000000000000000000000",
"1q00000000000000000000000000000000000000000000000000000000000000",
"1q00000000000000000000000000000000000000000000000000000000000000",
"1q00000000000000000000000000000000000000000000000000000000000000",
"1q00000000000000000000000000000000000000000000000000000000000000",
"1q00000000000000000000000000000000000000000000000000000000000000",
"1q00000000000000000000000000000000000000000000000000000000000000",
"1q00000000000000000000000000000000000000000000000000000000000000",
"1q00000000000000000000000000000000000000000000000000000000000000",
"1q0000000000000000000000000000000000qqqqqqqqqqq00000000000000000",
"1q000000000000000000000000000000000q11111111116q0000000000000000",
"1q000000000000000000000000000000000q111111111<5q0000000000000000",
"1q000000000000000000000000000qqqqqqq<<<<<<<<<<5q0000000000000000",
"1q00000000000000000000000000q699999955555555559q0000000000000000",
"1q00000000000000000000000000q<<<<<<<qqqqqqqqqqq00000000000000000",
"1q00000000000000000000000000q<11111<q000000000000000000000000000",
"1q0000000000qqqqqqqqqqqqqqqqq<<<<<<<q000000000000000000000000000",
"1q00000000061111111111111111100000000000000000000000000000000000",
"1q00000000q6<111111111111111<q0000000000000000000000000000000000",
"1qqqqqqqqqq6<111111111111111<qqqq0000000000000000000000000000000",
",99999999996555555555555555549999q000000000000000000000000000000",
"-1<<<<<<<<<6qqqqqqqqqqqqqqqqq<<<6q000000000000000000000000000000",
"-111111111<6q000000000000000q<1<6q000000000000000000000000000000",
"-1<<<<<<<<<6q000000000000000q<<<6qqq0000000000000000000000000000",
":00000000090000000000000000009006331q000000000000000000000000000",
":q00000000000000000000000000000q6<1<q000000000000000000000000000",
":q00000000000000000000000000000q6<1<q000000000000000000000000000",
">q00000000000000000000000000000q6<1<q000000000000000000000000000",
"1q00000000000000000000000000000q6<1<q000000000000000000000000000",
"1q00000000000000000000000000000q6<1<q000000000000000000000000000",
"1q00000000000000000000000000000q6<<<q000000000000000000000000000",
"1q00000000000000000000000000000009990000000000000000000000000000",
"1q0000000000000000000000000000000qqq0000000000000000000000000000",
"1q00000000000000000000000000000000000000000000000000000000000000",
"1q00000000000000000000000000000000000000000000000000000000000000",
"1q00000000000000000000000000000000000000000000000000000000000000",
"1q00000000000000000000000000000000000000000000000000000000000000",
"3qqqqqqqqqqqqqqqqqqqqqqqqqqqqqqqqqqqqqqqqqqqqqqqqqqqqqqqqqqqqqqq",
":433333333333333333333333333333333333333333333333333333333333333",
"-111111111111111111111111111111111111111111111111111111111111111",
"-111111111111111111111111111111111111111111111111111111111111111",
"*,,,,,,,,,,,,,,,,,,,,,,,,,,,,,,,,,,,,,,,,,,,,,,,,,,,,,,,,,,,,,,,",
"@@@@@@@@@@@@@@@@@@@@@@@@@@@@@@@@@@@@@@@@@@@@@@@@@@@@@@@@@@@@@@@@",
"@@@@@@@@@@@@@@@@@@@@@@@@@@@@@@@@@@@@@@@@@@@@@@@@@@@@@@@@@@@@@@@@",
"oooooooooooooooooooooooooooooooo.   @@@@@@@@@@@@@@oooooooooooooo",
"ttttttttttttttttttttttttttttttttphhh=*-*@@@@@@@@@otttttttttttttt",
"sssssssssssssssssssssssssssssssijllz=--*@@@@@@@@@.isssssssssssss",
"iiiiiiiiiiiiiiiiiiiiiiiiiiiiiiiijllz%==*@@@@@@@@@.isiiiiiiiiiiii",
"uuuuuuuuuuuuuuuuuuuuuuuuuuuuuuuufkkk7772&&&&&&@@@otyyyuuuuuuuuuu",
"00000000000000000000000000000009eiiuzlza%-----*@@@,<<40000000000",
"00000000000000000000000000000000esiillla%-----*@@@<115q000000000",
"00000000000000000000000000000000essilllaX####$+@@@<115q000000000",
"00000000000000000000000000000000qwwwfffghhhhhhrO@@<115q000000000"
};
